<svg version="1.1" id="Layer_1" xmlns="http://www.w3.org/2000/svg" xmlns:xlink="http://www.w3.org/1999/xlink" x="0px" y="0px"
	 width="100%" viewBox="0 0 430 125" enable-background="new 0 0 430 125" xml:space="preserve">
<path fill="#FEFFFF" opacity="1.000000" stroke="none" 
	d="
M278.000000,126.000000 
	C186.666672,126.000000 95.833328,125.975258 5.000159,126.095757 
	C1.576022,126.100296 0.887891,125.425850 0.901444,121.999641 
	C1.056378,82.833588 1.042239,43.666573 0.916084,4.500318 
	C0.906475,1.516957 1.518005,0.916886 4.500005,0.918855 
	C145.499924,1.011951 286.499908,1.011945 427.499847,0.918887 
	C430.481445,0.916920 431.093536,1.516418 431.083954,4.500169 
	C430.957916,43.833096 430.957977,83.166695 431.083893,122.499619 
	C431.093475,125.482765 430.483215,126.090210 427.499939,126.083199 
	C377.833496,125.966476 328.166718,126.000000 278.000000,126.000000 
z"/>
<path fill="#42BAFF" opacity="1.000000" stroke="none" 
	d="
M159.086685,91.515915 
	C154.476486,90.726593 151.248077,88.386757 148.357208,84.865631 
	C145.996292,83.186768 144.346283,84.509842 142.542404,85.373802 
	C132.714279,90.080971 122.722473,94.158508 111.085693,92.543900 
	C107.107773,92.283691 104.113075,90.178391 100.391045,89.204926 
	C97.403015,89.089722 95.399712,90.410423 93.261810,91.759979 
	C88.129639,94.999695 82.975494,98.407928 76.076645,97.536819 
	C66.029541,95.961456 57.076927,91.910278 47.360291,89.177788 
	C41.479179,87.833885 36.327557,89.192261 31.177656,91.104782 
	C28.135916,92.234383 25.096720,93.666519 21.307739,93.213623 
	C16.645292,92.830414 13.686467,90.484077 12.344849,86.608391 
	C10.967370,82.629097 13.757481,79.918114 16.402735,77.631371 
	C25.638680,69.647148 36.669476,64.241959 46.433071,56.994095 
	C50.975758,53.621891 55.737793,50.545185 60.689941,47.161366 
	C61.542557,45.652264 62.023621,44.267963 59.755184,44.331398 
	C52.341736,44.538734 44.864624,43.554375 37.541019,45.509529 
	C33.715950,46.530693 30.989202,50.139404 26.354095,50.082169 
	C18.502632,48.712753 16.540565,43.817139 21.674988,38.269535 
	C27.800308,31.651289 35.059093,27.309769 44.634750,26.989100 
	C59.205841,26.501146 73.760216,25.377209 88.305359,24.302362 
	C97.189911,23.645817 99.384338,25.071434 103.298317,35.585442 
	C102.428368,39.811356 99.320747,41.882698 96.473274,44.120781 
	C90.983826,48.435425 85.065681,52.143108 79.207359,55.918461 
	C73.351891,59.691967 67.371353,63.272697 61.438442,67.066811 
	C61.535671,68.450691 63.285465,68.312286 63.837906,69.676971 
	C69.588196,71.800842 75.065826,73.756897 80.598579,75.542076 
	C86.231354,77.359528 90.429024,75.110069 92.433167,69.545265 
	C96.001907,59.636143 103.973686,53.917736 112.566658,48.957558 
	C119.540878,44.931786 127.125450,42.469574 135.131088,41.398312 
	C141.634460,40.528069 146.574814,43.297707 149.108337,49.525196 
	C151.250351,54.520809 148.628616,57.867855 145.968826,61.125500 
	C143.741592,63.853336 140.670959,65.657150 138.036514,67.943855 
	C136.260223,69.485672 134.092545,70.380325 132.037140,71.455956 
	C137.557983,68.819252 142.909470,65.878517 148.268585,62.277939 
	C149.027588,61.651691 149.523727,61.230247 150.525742,60.434845 
	C153.629791,60.222343 153.485016,57.795361 154.320236,56.437996 
	C157.264069,51.653847 160.792206,47.429119 166.173630,45.500118 
	C175.736923,42.072098 180.526840,44.305141 182.515076,56.209461 
	C182.564911,56.772999 182.579849,56.982128 182.908554,57.212410 
	C186.449692,55.197517 189.587997,53.000523 192.921341,51.156017 
	C202.393738,45.914478 209.528564,49.765106 210.737747,60.586567 
	C210.929092,62.298996 209.556198,64.945580 211.529160,65.527939 
	C213.680466,66.162933 215.981476,64.508163 217.591858,62.792301 
	C227.349411,52.395611 239.604340,46.902321 253.414536,44.546253 
	C265.188354,42.537594 273.471252,44.789787 276.742767,58.360683 
	C277.702667,62.342602 279.594635,60.593941 281.311707,59.320354 
	C288.190094,54.218483 295.821838,50.593571 303.707428,47.364399 
	C310.185516,44.711613 316.265289,43.813751 321.666168,50.299622 
	C324.488892,41.949394 327.961090,34.588383 332.212311,27.619431 
	C334.910309,23.196682 337.895203,18.963675 342.533813,16.295973 
	C349.318726,12.393909 356.356476,14.944038 359.040100,22.567432 
	C360.336884,26.079977 358.768524,28.769947 357.600464,31.483854 
	C354.601257,38.452274 349.777557,44.222370 345.193726,50.148449 
	C342.627167,53.466599 340.412933,56.996407 339.603333,61.190311 
	C339.227142,63.139095 338.946075,65.161011 340.648254,67.102509 
	C344.261444,66.653725 346.541077,64.478523 348.626526,62.075489 
	C358.893738,50.244484 372.016937,43.747360 387.328705,41.417145 
	C393.960205,40.407928 398.890839,43.247402 401.268433,49.444809 
	C403.007874,54.389191 400.781769,57.879837 397.993927,61.108368 
	C393.635437,66.155876 388.251434,69.842216 384.802795,71.253731 
	C388.176453,69.689400 394.104340,66.708305 399.677429,62.434677 
	C400.457764,61.758755 401.039398,61.408211 402.360168,61.144257 
	C407.262726,59.331570 410.124603,55.409420 414.561005,53.881374 
	C419.216034,52.278030 421.025696,53.213764 422.032928,58.553337 
	C423.429596,61.288895 422.121216,63.351288 420.783844,64.839958 
	C405.479065,81.876122 387.544922,93.631447 363.106812,92.552994 
	C357.465942,91.575340 352.880096,89.217285 348.327881,85.929901 
	C345.653290,85.137184 343.640411,85.656853 341.514221,86.933769 
	C338.141785,88.959114 334.557129,90.711166 330.028046,89.644264 
	C325.140900,88.748016 321.811554,86.259689 319.314056,82.053192 
	C316.627106,80.801857 314.902924,82.232475 313.093170,83.416397 
	C307.799286,86.879547 302.348511,90.055603 296.248657,91.899391 
	C294.373444,92.466209 292.472626,93.285118 290.094360,92.488022 
	C283.042236,91.368362 278.162170,87.732445 274.549561,81.673691 
	C273.620361,81.258995 272.997803,80.963287 272.065948,80.513062 
	C270.111755,80.003792 268.479462,79.618904 266.489075,79.222183 
	C263.707916,79.815674 261.553711,80.859589 259.521637,82.394547 
	C254.491852,86.193871 248.922028,89.025620 242.994873,91.222321 
	C238.565445,92.863937 234.142365,93.792381 229.089813,92.573715 
	C224.373398,91.517220 220.667160,89.477791 217.481171,85.868591 
	C214.897705,84.012657 212.768509,85.204018 210.611038,86.063896 
	C207.019394,87.495384 203.376297,88.590210 199.105225,87.492432 
	C193.686905,86.726723 191.017319,83.623878 189.943619,78.467072 
	C187.822372,75.627235 185.616074,76.304649 183.286484,77.741364 
	C177.774078,81.140961 172.491760,84.888954 167.041565,88.379883 
	C164.702179,89.878288 162.501236,91.818047 159.086685,91.515915 
z"/>
<path fill="#9DDAFF" opacity="1.000000" stroke="none" 
	d="
M362.936218,92.749069 
	C380.212860,92.144318 395.327240,85.504463 408.878510,74.967674 
	C414.231201,70.805695 419.661957,66.529823 421.992065,59.293758 
	C425.705292,60.687275 424.010864,63.345303 423.067932,65.678879 
	C420.980774,70.844238 416.503296,73.906342 412.312592,77.096077 
	C399.175049,87.095627 385.063141,94.676430 367.852570,94.002411 
	C366.251984,93.939728 364.498932,94.443375 362.936218,92.749069 
z"/>
<path fill="#9DDAFF" opacity="1.000000" stroke="none" 
	d="
M64.078056,69.576324 
	C62.246254,69.251022 60.406128,68.582275 58.118908,67.751045 
	C70.963623,59.349274 83.877968,52.128105 95.689095,43.216038 
	C98.383469,41.183002 100.703468,38.877945 103.042114,36.073727 
	C107.572716,40.057682 103.415489,42.215542 101.053757,44.106239 
	C93.391388,50.240410 85.001900,55.356819 76.745613,60.657459 
	C72.458008,63.410156 67.605057,65.361450 64.078056,69.576324 
z"/>
<path fill="#9CDAFF" opacity="1.000000" stroke="none" 
	d="
M340.920715,66.849548 
	C338.053467,68.341476 338.105927,66.164833 338.025421,64.452583 
	C337.814240,59.961575 339.522278,56.025951 342.045380,52.461143 
	C345.572052,47.478394 349.319092,42.651585 352.843170,37.667061 
	C355.828766,33.444153 357.766724,28.718609 359.013702,23.298138 
	C362.307831,25.409622 361.094147,28.517229 360.224854,31.489744 
	C357.738403,39.991707 351.568970,46.174290 346.456940,53.007313 
	C343.447388,57.030083 340.757782,61.118755 340.920715,66.849548 
z"/>
<path fill="#9DDAFF" opacity="1.000000" stroke="none" 
	d="
M228.909515,92.752457 
	C241.331894,92.072357 252.058716,87.092445 261.489227,78.998711 
	C262.858612,77.823448 264.122955,77.816414 265.826843,78.997482 
	C261.640564,85.574165 254.880402,88.639900 248.026093,91.468491 
	C241.926392,93.985664 235.739365,96.558846 228.909515,92.752457 
z"/>
<path fill="#9DDAFF" opacity="1.000000" stroke="none" 
	d="
M26.158482,50.410011 
	C37.490044,40.969875 50.953560,43.173843 64.176056,43.185383 
	C64.148300,45.222782 62.599667,45.791046 61.299606,46.884560 
	C52.500237,45.598274 44.020061,43.882935 36.010433,48.931011 
	C33.071861,50.783047 30.224466,53.783432 26.158482,50.410011 
z"/>
<path fill="#9DDAFF" opacity="1.000000" stroke="none" 
	d="
M158.934082,91.720215 
	C166.199829,88.341660 172.325806,83.115334 179.103546,78.953125 
	C181.081940,77.738197 183.180725,76.698578 185.063400,75.353378 
	C187.920059,73.312241 189.127228,74.630203 189.858322,77.746979 
	C187.671677,77.532127 186.112900,78.910820 184.457367,79.983986 
	C178.613861,83.771927 172.800919,87.607765 166.925522,91.345467 
	C164.491669,92.893806 161.910309,94.016823 158.934082,91.720215 
z"/>
<path fill="#9DDAFF" opacity="1.000000" stroke="none" 
	d="
M110.936142,92.749329 
	C123.074028,91.987114 134.599045,88.738029 145.222870,82.415848 
	C147.258682,81.204361 148.276672,81.502815 148.075134,84.378067 
	C136.758972,91.977776 124.738174,96.015106 110.936142,92.749329 
z"/>
<path fill="#9DDAFF" opacity="1.000000" stroke="none" 
	d="
M289.950714,92.684990 
	C299.053864,90.514122 307.139435,86.103882 314.874664,80.839676 
	C315.941376,80.113724 318.054474,76.918945 319.030762,81.538422 
	C312.428619,88.137794 304.561707,91.969536 295.764313,93.840683 
	C293.983704,94.219406 291.809479,94.592476 289.950714,92.684990 
z"/>
<path fill="#98D9FF" opacity="1.000000" stroke="none" 
	d="
M401.221069,61.824417 
	C399.900604,65.719513 396.132355,66.117722 393.525909,67.906570 
	C389.164459,70.899933 384.261658,72.740692 379.017242,73.787270 
	C385.082153,69.885689 391.421326,66.508430 396.385651,61.168159 
	C399.194061,58.147026 401.225739,54.889114 401.277100,50.212261 
	C405.017609,52.846992 403.414154,56.646099 402.942230,60.703094 
	C403.028625,61.109703 402.992157,61.062134 403.019531,61.050304 
	C402.573059,61.400894 401.988708,61.469421 401.221069,61.824417 
z"/>
<path fill="#9BDAFF" opacity="1.000000" stroke="none" 
	d="
M150.154633,62.004570 
	C143.621933,67.112541 136.876602,71.196167 128.856247,72.714508 
	C133.457138,70.052071 137.658691,66.890083 141.700241,63.533188 
	C145.716965,60.196884 149.188339,56.452782 149.135376,50.290428 
	C152.666351,52.472279 151.889420,55.876228 151.017838,59.701019 
	C151.062180,60.095444 151.011536,60.050835 151.040131,60.033012 
	C150.480835,60.432381 150.496918,61.122765 150.154633,62.004570 
z"/>
<path fill="#9DDAFF" opacity="1.000000" stroke="none" 
	d="
M75.928009,97.746719 
	C82.893768,96.223938 89.466003,93.693192 95.083031,88.977325 
	C96.556030,87.740646 98.033073,86.691971 99.891762,88.900726 
	C93.989861,96.841156 83.946129,100.568420 75.928009,97.746719 
z"/>
<path fill="#9CDAFF" opacity="1.000000" stroke="none" 
	d="
M21.131317,93.438545 
	C26.577682,91.269447 32.241467,89.476639 37.856026,87.541046 
	C40.956100,86.472321 43.687527,87.770332 46.764427,88.813919 
	C40.364773,90.037956 34.132965,92.403145 27.806847,94.446617 
	C25.599888,95.159508 23.320528,95.534813 21.131317,93.438545 
z"/>
<path fill="#9DDAFF" opacity="1.000000" stroke="none" 
	d="
M329.873779,89.844925 
	C334.555267,88.760063 339.257751,87.509674 343.259491,84.438072 
	C345.082001,83.039169 346.520416,83.384346 347.856140,85.527405 
	C342.534363,89.383148 337.220886,93.592445 329.873779,89.844925 
z"/>
<path fill="#9CDAFF" opacity="1.000000" stroke="none" 
	d="
M198.953659,87.690216 
	C203.553284,86.917755 208.264893,86.169662 212.527039,83.743874 
	C214.481461,82.631516 215.981430,82.900719 217.089355,85.348221 
	C211.383347,88.002777 205.636139,90.870705 198.953659,87.690216 
z"/>
<path fill="#9DDAFF" opacity="1.000000" stroke="none" 
	d="
M271.876282,80.683731 
	C272.623047,79.976456 273.411743,80.001457 274.161072,81.146378 
	C273.403870,81.927330 272.628815,81.842926 271.876282,80.683731 
z"/>
<path fill="#9CDAFF" opacity="1.000000" stroke="none" 
	d="
M95.940971,29.790691 
	C99.668030,33.366707 99.204659,36.114689 95.346794,38.897411 
	C81.984131,48.536060 67.982651,57.166073 53.860462,65.616081 
	C53.575386,65.786652 53.209999,65.860313 52.981342,66.081711 
	C51.658272,67.362747 48.707314,67.477928 49.300766,70.103745 
	C49.914757,72.820412 52.587101,71.603569 54.789890,72.153252 
	C57.462189,73.396362 59.980320,73.155212 62.681747,73.792076 
	C69.531670,74.629288 75.333153,77.671097 81.767715,79.870659 
	C85.202332,81.966339 88.811829,79.870567 92.303719,81.515381 
	C94.607391,83.718498 93.745018,85.259171 91.888252,86.652573 
	C84.931343,91.873390 77.609871,94.843964 68.733292,91.543274 
	C62.214966,89.119484 55.513638,87.173737 48.851162,85.155960 
	C42.997715,83.383202 37.272774,83.333023 31.341496,85.606003 
	C27.296637,87.156067 23.280848,89.774971 18.255959,88.307846 
	C17.660328,84.243179 20.455225,82.417686 22.946552,80.601875 
	C33.844666,72.658768 45.399563,65.680916 56.458977,57.967400 
	C60.691090,55.015667 64.896240,52.023685 69.134392,49.079826 
	C70.442360,48.171299 72.194679,47.488174 71.910164,45.034679 
	C72.680969,41.062721 71.432846,39.665783 67.533859,39.841438 
	C61.086716,40.131889 54.609352,40.117081 48.158722,39.868153 
	C40.777939,39.583328 33.638428,39.831020 27.268129,44.902824 
	C25.945541,42.988941 27.022110,41.569141 28.293360,40.534328 
	C33.874638,35.991104 39.556633,31.947918 47.379925,31.924971 
	C61.997990,31.882093 76.531723,29.966850 91.133514,29.357367 
	C92.635658,29.294666 94.095589,29.006721 95.940971,29.790691 
z"/>
<path fill="#9BDAFF" opacity="1.000000" stroke="none" 
	d="
M353.588501,20.782932 
	C356.356598,25.824478 353.138794,29.623133 351.066742,33.195641 
	C348.005280,38.474037 344.178711,43.346687 340.352692,48.132114 
	C337.024139,52.295387 335.199677,56.995296 334.220764,62.088093 
	C333.230804,67.238312 335.541779,70.527290 340.879547,71.420494 
	C342.987946,71.773308 343.782867,72.999191 343.833832,74.708153 
	C343.899048,76.894630 344.891907,79.493385 342.080444,80.908699 
	C339.559021,82.178017 337.131897,83.740898 334.479919,84.623779 
	C327.922974,86.806648 324.181335,84.558083 322.178680,76.680382 
	C321.148590,72.628426 319.790558,72.670731 316.867828,74.714859 
	C309.660248,79.755783 302.439087,84.707939 293.830566,87.323387 
	C288.017944,89.089371 283.706726,86.786163 279.939728,83.091576 
	C278.162354,81.348366 277.586334,79.457947 281.171814,77.554199 
	C288.686218,73.564323 295.663971,68.569450 296.866638,58.631386 
	C302.403534,53.556866 308.846893,51.062901 316.423157,50.781094 
	C319.816650,53.820095 316.541931,54.248440 315.082184,54.793369 
	C310.366364,56.553829 306.256775,59.339836 302.078552,62.015884 
	C300.838196,62.810307 299.783630,63.902992 298.676453,64.895309 
	C296.863007,66.520683 296.498260,68.641800 297.126923,70.822762 
	C297.860931,73.369385 300.098816,73.005836 302.499023,72.940071 
	C305.801544,74.090240 308.444336,73.467110 310.961945,71.836098 
	C311.938965,71.203156 312.914856,70.542313 313.969116,70.061485 
	C320.905396,66.897873 325.023254,61.859016 326.929138,54.199699 
	C329.436920,44.121490 334.613678,35.056122 340.798889,26.729757 
	C343.763184,22.739365 347.334137,18.977049 353.588501,20.782932 
z"/>
<path fill="#9CDAFF" opacity="1.000000" stroke="none" 
	d="
M203.697052,54.771255 
	C206.197968,57.828445 204.662643,61.065979 204.870987,64.098938 
	C205.212708,69.073494 206.483704,70.529007 211.313599,69.623528 
	C213.912964,69.136208 214.381668,69.666542 213.641754,71.966331 
	C213.489258,72.440300 213.378159,72.936615 213.159134,73.378593 
	C212.151871,75.411285 215.068176,78.289604 212.220917,79.688980 
	C207.593414,81.963333 202.752197,83.947449 197.377609,82.902313 
	C195.430420,82.523666 194.202240,81.291473 193.958740,79.149124 
	C193.773727,77.521393 193.405823,75.903931 192.993454,74.314537 
	C191.768097,69.591599 189.896606,68.483406 185.483734,70.908302 
	C179.377914,74.263496 173.604248,78.222099 167.677795,81.905319 
	C165.279953,83.395554 162.901108,84.926071 160.430283,86.286926 
	C156.739243,88.319824 154.078308,85.951706 152.476700,83.347221 
	C151.080154,81.076164 151.668411,78.488533 154.499008,76.552429 
	C159.713425,72.985794 164.732254,69.016869 167.953110,63.411781 
	C169.676865,60.412045 171.437134,57.128864 168.152023,53.500984 
	C169.195633,48.730602 172.815125,49.515987 176.452850,49.693283 
	C176.498657,54.327003 173.893036,57.871483 172.122528,61.746532 
	C171.435013,63.251293 170.600479,64.666557 171.909149,66.338486 
	C173.228134,68.023613 174.740356,67.632668 176.703751,67.073837 
	C179.396027,69.019745 181.039291,67.126373 182.693329,65.931038 
	C187.496231,62.460106 192.090805,58.677315 197.416306,55.997124 
	C199.276901,55.060726 201.095673,53.643944 203.697052,54.771255 
z"/>
<path fill="#9BDAFF" opacity="1.000000" stroke="none" 
	d="
M257.004089,60.132500 
	C257.724304,58.089901 258.577850,56.361179 259.589935,54.311314 
	C250.455933,52.601250 244.730652,59.142330 237.321854,62.500851 
	C237.218201,60.857143 237.121704,59.326870 237.008087,57.402992 
	C238.975739,54.231316 242.129852,53.420914 245.082886,52.433853 
	C251.871292,50.164829 258.736450,48.153694 266.455627,49.155281 
	C268.112762,49.351612 269.346252,50.239048 269.467834,51.210133 
	C270.370636,58.421070 275.691345,64.734680 273.449677,72.652451 
	C272.592987,75.678391 271.308380,77.008400 268.768188,75.374741 
	C263.497070,71.984810 260.245636,75.090652 256.391571,78.102814 
	C248.677841,84.131500 240.198517,88.525833 229.951904,88.123314 
	C227.903229,88.042839 225.986633,87.753586 224.250626,86.634491 
	C218.356400,82.834846 218.310959,80.971619 223.891235,76.974716 
	C225.369354,75.916016 226.701706,74.646561 228.055313,73.423317 
	C229.407471,72.201378 230.702408,70.916100 232.486298,69.216698 
	C233.960922,72.104012 235.457825,74.975967 239.488220,74.889854 
	C250.304184,77.007652 258.454712,70.190697 257.004089,60.132500 
z"/>
<path fill="#9BDAFF" opacity="1.000000" stroke="none" 
	d="
M371.239380,71.723694 
	C368.350464,73.814835 368.127655,75.168869 371.457031,76.205383 
	C372.836426,76.634834 374.156006,77.256317 375.828613,77.954620 
	C380.845459,79.870323 385.286713,78.688980 389.557068,76.752525 
	C397.108398,73.328232 404.183960,69.087128 410.681610,63.904510 
	C412.065033,62.801060 413.276184,61.249306 415.694397,61.791920 
	C414.450684,67.033028 409.947754,69.382927 406.199738,72.184250 
	C393.745697,81.492561 380.292938,88.479355 364.119751,88.002151 
	C362.482910,87.953857 360.824982,87.648323 359.233093,87.241951 
	C355.428192,86.270683 350.935608,84.689110 350.124451,81.118538 
	C349.523224,78.472061 354.011078,76.324257 356.527191,74.412407 
	C359.481567,72.167526 361.544373,69.182724 364.577942,65.954323 
	C364.724884,70.821198 367.155457,70.137802 370.158905,68.878754 
	C371.651031,69.348244 371.674500,70.279472 371.239380,71.723694 
z"/>
<path fill="#9BDAFF" opacity="1.000000" stroke="none" 
	d="
M119.185326,71.811531 
	C117.250206,73.415230 115.087234,74.638115 118.956581,76.028526 
	C120.489014,76.579193 121.961998,77.295288 123.816284,78.035889 
	C129.190781,79.524475 133.875854,78.484474 138.491486,76.360367 
	C141.447662,74.999939 144.088013,72.808723 147.845535,72.923401 
	C148.578247,75.725983 147.119003,77.152138 145.110275,78.298134 
	C134.575882,84.308128 123.583031,88.710007 111.136978,88.013123 
	C109.818695,87.939316 108.471611,87.855637 107.201805,87.528458 
	C100.839897,85.889244 100.544975,85.139069 103.860916,79.601295 
	C107.093346,74.203011 106.755127,71.652428 102.065651,68.577286 
	C103.109131,62.975700 110.006653,56.971561 115.769852,56.608154 
	C116.969490,59.139065 114.892838,60.726582 114.559669,62.757580 
	C114.123734,65.414963 113.532074,68.162544 117.900620,68.616364 
	C118.980316,69.516701 119.362190,70.409355 119.185326,71.811531 
z"/>
<path fill="#F5FBFF" opacity="1.000000" stroke="none" 
	d="
M353.773346,20.663181 
	C348.384827,20.332151 344.777771,23.400747 341.788910,27.386860 
	C334.420380,37.213989 329.529846,48.279579 326.244019,60.033852 
	C325.473572,62.790005 324.404968,64.945610 322.019012,66.419640 
	C317.785736,69.034935 313.617523,71.773209 309.254608,74.152962 
	C307.328156,75.203758 304.931854,76.232803 302.977631,73.315079 
	C308.532806,70.381874 313.788635,67.214966 318.847992,63.692284 
	C321.875549,61.584297 323.273407,58.780636 324.234009,55.164764 
	C327.376373,43.336601 332.293610,32.228733 340.384888,22.874275 
	C345.048096,17.483084 349.033142,16.970203 353.773346,20.663181 
z"/>
<path fill="#F7FCFF" opacity="1.000000" stroke="none" 
	d="
M71.485199,44.770706 
	C74.450996,45.228489 75.637245,45.912544 72.616554,47.968254 
	C60.595791,56.148926 48.649220,64.438560 36.666752,72.675598 
	C30.174334,77.138641 22.769266,80.460426 18.140152,87.731049 
	C15.113997,86.299103 15.263360,84.215141 17.329243,81.948891 
	C19.799461,79.239075 22.670681,77.009239 25.748068,75.036896 
	C39.818909,66.018669 53.664505,56.669537 67.235008,46.912163 
	C68.419319,46.060631 69.828339,45.521622 71.485199,44.770706 
z"/>
<path fill="#F5FBFF" opacity="1.000000" stroke="none" 
	d="
M96.124252,29.620825 
	C79.492195,31.308540 62.646694,32.550648 45.748055,33.231331 
	C38.032417,33.542122 31.897940,38.216381 26.961685,44.552822 
	C25.821775,45.658676 24.592783,46.688091 23.410746,45.424114 
	C22.181295,44.109447 22.821709,42.563995 23.837872,41.372768 
	C28.244509,36.206959 33.580078,31.785210 40.338142,31.171686 
	C56.810719,29.676249 73.356194,28.969240 89.878273,28.052273 
	C91.906303,27.939720 94.246597,27.151691 96.124252,29.620825 
z"/>
<path fill="#F5FBFF" opacity="1.000000" stroke="none" 
	d="
M116.230766,56.885227 
	C109.510925,58.349571 105.989189,63.411366 101.836121,68.114197 
	C100.130981,68.870689 98.554199,69.348740 96.242752,70.049522 
	C97.460793,66.280746 99.557655,63.720165 101.935699,61.364616 
	C110.607384,52.774979 121.222885,47.863358 132.999084,45.333679 
	C136.242783,44.636890 139.640396,44.484070 142.933350,46.692688 
	C138.523224,49.833576 132.666000,48.897583 127.800896,52.155884 
	C123.640091,53.346775 120.430840,55.869476 116.230766,56.885227 
z"/>
<path fill="#F5FBFF" opacity="1.000000" stroke="none" 
	d="
M416.264709,61.756203 
	C410.537994,65.639221 405.130096,69.363205 399.596344,72.889748 
	C395.400665,75.563606 390.978333,77.858841 386.197327,79.343857 
	C382.935150,80.357101 379.691162,80.558098 376.383881,78.395653 
	C388.571777,76.781273 398.168488,69.672218 407.803253,62.644741 
	C409.804535,61.185047 411.693665,59.542614 413.813141,58.285698 
	C414.952728,57.609890 416.574707,56.089878 417.770538,57.591923 
	C418.818207,58.907829 417.434753,60.334042 416.264709,61.756203 
z"/>
<path fill="#9CDAFF" opacity="1.000000" stroke="none" 
	d="
M395.015076,46.812744 
	C399.416931,50.387772 397.326324,53.813366 395.227692,57.000362 
	C393.586639,59.492493 391.051056,61.164780 388.176147,62.761284 
	C386.689148,61.651375 385.988983,60.233402 385.247559,58.450592 
	C385.371674,54.167828 383.606201,51.962357 379.158386,51.645618 
	C378.386627,49.547684 379.884064,48.924534 381.224579,48.412689 
	C385.535553,46.766644 389.925354,45.489254 395.015076,46.812744 
z"/>
<path fill="#9BDAFF" opacity="1.000000" stroke="none" 
	d="
M126.870491,51.873535 
	C131.287628,47.634041 136.931290,47.831364 142.717270,47.019012 
	C146.626297,49.802067 145.304657,52.966145 143.524841,55.817326 
	C141.778366,58.615112 139.279877,60.842812 136.173218,62.729729 
	C134.535202,61.499771 134.078766,59.638229 132.539673,58.128059 
	C131.504852,55.029762 129.386383,53.447098 126.870491,51.873535 
z"/>
<path fill="#C8EAFF" opacity="1.000000" stroke="none" 
	d="
M354.191101,71.204239 
	C352.328339,72.854279 350.968536,74.590218 348.508759,75.449608 
	C347.226715,71.959709 347.980560,68.939606 350.194214,66.346313 
	C353.010803,63.046696 356.466156,60.411663 360.107727,58.083336 
	C361.079437,57.462044 362.421814,56.111938 363.627197,57.446426 
	C364.548645,58.466587 363.388855,59.612072 362.912537,60.603706 
	C360.930054,64.731026 357.681000,67.841393 354.191101,71.204239 
z"/>
<path fill="#F5FBFF" opacity="1.000000" stroke="none" 
	d="
M203.903442,54.637260 
	C195.863312,56.248726 190.436600,62.168449 184.050827,66.409103 
	C182.677017,67.321411 181.407455,68.395302 180.008972,69.264618 
	C178.319061,70.315094 177.173859,69.984100 177.052094,67.417908 
	C183.327560,61.825939 189.759033,56.802628 197.091599,53.110603 
	C199.490845,51.902561 202.147156,50.714195 203.903442,54.637260 
z"/>
<path fill="#EFF9FF" opacity="1.000000" stroke="none" 
	d="
M395.141907,46.669109 
	C389.713379,47.266312 384.144562,48.084747 378.911194,51.217155 
	C375.864929,51.853069 373.360626,53.152386 371.048706,54.819115 
	C369.157654,56.182446 367.634369,55.967770 366.542969,53.937321 
	C365.234406,51.502884 367.804199,51.589924 368.788910,51.075974 
	C374.712616,47.984261 380.953613,45.741123 387.651093,45.042015 
	C390.155945,44.780552 392.648071,44.915485 395.141907,46.669109 
z"/>
<path fill="#F3FAFF" opacity="1.000000" stroke="none" 
	d="
M266.523132,48.965630 
	C263.044312,50.800255 258.855042,49.951050 254.894180,50.948456 
	C248.972824,52.439548 243.220001,54.287533 237.354462,56.966476 
	C236.482681,55.988964 233.370514,55.110909 236.052994,53.886501 
	C245.592056,49.532387 255.370316,45.877075 266.523132,48.965630 
z"/>
<path fill="#E9F7FF" opacity="1.000000" stroke="none" 
	d="
M132.675537,58.079575 
	C135.373703,58.404049 135.707718,60.181316 135.849625,62.421951 
	C131.139175,67.009743 125.276978,69.226341 119.375565,72.074570 
	C118.719398,71.312798 118.417641,70.469269 118.043869,69.298157 
	C117.532814,66.789299 119.323486,66.192177 120.647316,65.387962 
	C124.563118,63.009171 128.409302,60.519829 132.675537,58.079575 
z"/>
<path fill="#F3FAFF" opacity="1.000000" stroke="none" 
	d="
M148.322723,72.860382 
	C144.418182,74.911179 140.745270,76.777985 136.962097,78.385323 
	C132.936920,80.095474 128.797638,81.117546 124.398193,78.411514 
	C133.675064,77.132629 141.464401,72.084099 149.456894,67.255997 
	C150.093216,69.314919 149.002426,70.885597 148.322723,72.860382 
z"/>
<path fill="#F3FAFF" opacity="1.000000" stroke="none" 
	d="
M384.963257,58.420601 
	C386.914124,58.877300 387.914734,60.148838 387.836670,62.470062 
	C383.343445,67.394257 377.314819,69.305008 371.364624,72.068192 
	C370.931519,71.314102 370.859985,70.478691 370.652527,69.248077 
	C374.763031,64.751297 380.945526,63.374886 384.963257,58.420601 
z"/>
<path fill="#F5FBFF" opacity="1.000000" stroke="none" 
	d="
M256.605347,60.123878 
	C257.786255,60.105457 258.701721,60.392288 259.617188,60.679119 
	C257.532776,63.750107 259.346222,68.158546 256.563873,70.783516 
	C253.148300,74.005890 248.700287,75.612411 244.220428,76.876831 
	C242.748444,77.292297 241.240494,76.947205 240.019043,75.252632 
	C243.208603,73.486008 246.558304,72.040993 249.930878,70.651489 
	C254.514145,68.763184 256.752197,65.434555 256.605347,60.123878 
z"/>
<path fill="#9DDAFF" opacity="1.000000" stroke="none" 
	d="
M232.323105,60.577740 
	C230.985794,68.231750 224.908737,71.929817 219.087128,75.179192 
	C216.018509,76.891960 217.635132,72.998596 217.403870,71.292542 
	C220.833176,68.674049 223.244385,65.438805 226.365219,63.004204 
	C228.007355,61.723167 229.511139,59.922150 232.323105,60.577740 
z"/>
<path fill="#F3FAFF" opacity="1.000000" stroke="none" 
	d="
M316.590790,50.671822 
	C309.919189,52.128830 303.829895,55.306538 297.206909,58.141846 
	C296.377014,57.122437 293.678467,56.016922 295.978271,54.828087 
	C301.260559,52.097534 306.671783,49.406559 312.763367,49.008541 
	C313.949554,48.931034 315.202667,49.878136 316.590790,50.671822 
z"/>
<path fill="#98D9FF" opacity="1.000000" stroke="none" 
	d="
M291.619629,61.730999 
	C289.916351,67.489288 285.511230,70.760887 280.696686,73.600212 
	C279.769012,74.147285 278.621552,75.197945 277.584106,74.409660 
	C276.581940,73.648163 277.066071,72.279495 277.421631,71.188271 
	C277.825378,69.949158 278.322052,68.740318 278.974915,67.192169 
	C283.537506,65.814140 286.827698,62.318302 291.619629,61.730999 
z"/>
<path fill="#9BDAFF" opacity="1.000000" stroke="none" 
	d="
M160.790222,59.050659 
	C162.284927,57.712059 163.958267,56.360455 165.328369,57.519691 
	C166.923813,58.869595 165.206375,60.591816 164.487015,61.938709 
	C162.495117,65.668251 159.310181,68.303711 155.919968,70.721184 
	C152.312851,73.293335 153.075638,70.545372 153.409454,68.259506 
	C156.783646,65.783325 157.770203,61.821861 160.790222,59.050659 
z"/>
<path fill="#98D9FF" opacity="1.000000" stroke="none" 
	d="
M242.147766,69.944572 
	C240.548477,71.412254 238.536224,71.590233 237.612473,70.285568 
	C236.552078,68.787903 238.715378,67.895012 239.590591,66.815926 
	C242.151886,63.658028 245.816345,62.018101 249.175354,59.980259 
	C252.010712,58.260113 252.115860,60.206085 251.983765,62.655979 
	C249.516220,65.456146 246.456375,66.941566 243.260986,68.826912 
	C243.015594,69.059715 242.997498,69.004082 243.025742,69.011688 
	C242.773422,69.226288 242.522583,69.464577 242.147766,69.944572 
z"/>
<path fill="#94D7FF" opacity="1.000000" stroke="none" 
	d="
M317.516205,58.075226 
	C317.990601,58.159744 318.261047,58.311836 318.252655,58.329243 
	C316.453766,62.053547 305.822083,68.376694 300.681824,68.379395 
	C305.565613,63.276913 311.359558,60.656509 317.516205,58.075226 
z"/>
<path fill="#F5FBFF" opacity="1.000000" stroke="none" 
	d="
M232.740570,60.407219 
	C229.050049,61.578857 226.543900,64.042961 224.294968,66.658897 
	C222.614594,68.613495 220.762939,70.095047 217.979614,70.969879 
	C219.407700,64.527847 225.103119,62.103237 230.162750,59.080269 
	C230.939240,58.616341 232.524612,58.153263 232.740570,60.407219 
z"/>
<path fill="#EFF9FF" opacity="1.000000" stroke="none" 
	d="
M176.705399,49.529091 
	C173.921494,50.510395 170.881714,50.734379 168.155945,52.875336 
	C165.813965,52.833809 163.755386,53.518433 161.383774,54.194572 
	C165.161194,48.271793 170.800507,46.537060 176.705399,49.529091 
z"/>
<path fill="#94D7FF" opacity="1.000000" stroke="none" 
	d="
M377.135468,56.090416 
	C378.560547,55.963821 379.749542,54.621895 380.663940,55.899940 
	C381.534119,57.116199 380.437805,58.021282 379.603333,58.836254 
	C378.196472,60.210339 372.582001,62.794506 369.128815,63.564281 
	C370.749084,59.845909 373.447479,57.696545 377.135468,56.090416 
z"/>
<path fill="#F3FAFF" opacity="1.000000" stroke="none" 
	d="
M292.134705,61.647999 
	C287.655884,62.936924 285.046539,67.920998 279.559204,66.908783 
	C282.017548,62.608654 286.859039,61.335854 291.053711,59.213787 
	C292.912964,58.273186 293.276489,59.782963 292.134705,61.647999 
z"/>
<path fill="#F3FAFF" opacity="1.000000" stroke="none" 
	d="
M160.662659,58.884125 
	C159.380768,62.268421 158.631821,66.389000 153.999390,67.996521 
	C154.197235,63.752193 156.787613,61.020813 160.662659,58.884125 
z"/>
<path fill="#F5FBFF" opacity="1.000000" stroke="none" 
	d="
M92.612152,81.423386 
	C89.177872,82.039642 85.698746,82.713623 82.298294,80.362946 
	C84.382652,80.115303 86.684738,79.910110 88.727493,78.847748 
	C91.381409,77.467552 92.192261,78.833435 92.612152,81.423386 
z"/>
<path fill="#94D7FF" opacity="1.000000" stroke="none" 
	d="
M97.781082,74.318741 
	C99.017357,72.795151 100.326302,72.465050 101.461288,73.485527 
	C102.536865,74.452606 101.831589,75.797050 101.117622,76.619324 
	C99.951874,77.961952 100.073540,80.947639 96.969795,79.797150 
	C96.686371,77.829491 96.620178,76.181366 97.781082,74.318741 
z"/>
<path fill="#EFF9FF" opacity="1.000000" stroke="none" 
	d="
M243.379913,69.196915 
	C244.917328,65.896095 248.099991,64.487007 251.609222,63.039291 
	C251.133347,67.628365 246.950851,67.844650 243.379913,69.196915 
z"/>
<path fill="#E9F7FF" opacity="1.000000" stroke="none" 
	d="
M97.666870,74.079620 
	C98.002647,75.607620 98.276764,77.283646 97.137039,79.151978 
	C93.970238,77.480972 94.570198,75.749199 97.666870,74.079620 
z"/>
<path fill="#E9F7FF" opacity="1.000000" stroke="none" 
	d="
M62.806488,73.673782 
	C60.458450,73.494125 57.653790,75.028236 55.264977,72.616379 
	C57.832142,71.531662 60.238152,72.373009 62.806488,73.673782 
z"/>
<path fill="#FEFFFF" opacity="1.000000" stroke="none" 
	d="
M401.322815,62.006348 
	C401.473145,61.635780 401.947357,61.263878 402.734253,60.965225 
	C402.912170,61.841587 402.330109,61.996693 401.322815,62.006348 
z"/>
<path fill="#FEFFFF" opacity="1.000000" stroke="none" 
	d="
M150.306000,62.075874 
	C150.152252,61.632305 150.294403,60.971905 150.752625,60.163345 
	C151.727859,60.836082 151.055176,61.319790 150.306000,62.075874 
z"/>
<path fill="#FEFFFF" opacity="1.000000" stroke="none" 
	d="
M183.056671,57.063702 
	C182.901276,57.372849 182.580215,57.512135 182.259155,57.651421 
	C182.225800,57.406586 182.192429,57.161755 182.354523,56.740402 
	C182.549957,56.563873 182.891006,56.893837 183.056671,57.063702 
z"/>
<path fill="#EFF9FF" opacity="1.000000" stroke="none" 
	d="
M242.287750,70.065308 
	C242.170334,69.835182 242.346603,69.515358 242.788422,69.107414 
	C242.896469,69.338074 242.738953,69.656845 242.287750,70.065308 
z"/>
<path fill="#42BAFF" opacity="1.000000" stroke="none" 
	d="
M133.027664,57.641739 
	C129.241348,63.053398 123.015121,64.632454 118.156021,68.688942 
	C116.413040,68.656731 114.597893,71.130379 113.480118,69.188614 
	C112.233818,67.023582 112.621521,64.291718 113.310356,61.910461 
	C113.756119,60.369507 114.915260,59.034908 115.807419,57.239403 
	C118.910110,54.434990 122.161598,52.392834 126.457275,51.586967 
	C130.319427,51.905891 132.850739,53.307247 133.027664,57.641739 
z"/>
<path fill="#94D7FF" opacity="1.000000" stroke="none" 
	d="
M124.575455,56.262604 
	C126.181168,56.100311 127.887039,55.199631 128.473602,56.753052 
	C129.088730,58.382095 127.162659,58.775120 126.162560,59.498260 
	C123.609451,61.344311 120.836296,62.786388 117.420364,64.015549 
	C117.556389,59.188671 121.446144,58.281067 124.575455,56.262604 
z"/>
</svg>