<svg version="1.1" id="Layer_1" xmlns="http://www.w3.org/2000/svg" xmlns:xlink="http://www.w3.org/1999/xlink" x="0px" y="0px"
	 width="100%" viewBox="0 0 342 200" enable-background="new 0 0 342 200" xml:space="preserve">
<path fill="#FAF9F8" opacity="1.000000" stroke="none" 
	d="
M222.000000,201.000000 
	C148.000015,201.000000 74.500015,201.000000 1.000020,201.000000 
	C1.000013,134.333344 1.000013,67.666702 1.000007,1.000038 
	C114.999969,1.000025 228.999939,1.000025 342.999939,1.000013 
	C342.999939,67.666626 342.999939,134.333252 342.999969,200.999939 
	C302.833344,201.000000 262.666656,201.000000 222.000000,201.000000 
M55.537842,124.111481 
	C54.371647,124.111481 53.171413,124.292625 52.044991,124.080971 
	C46.327721,123.006638 43.209419,125.599747 40.325939,130.510086 
	C30.135893,147.863037 19.548565,164.988342 8.810317,182.009720 
	C6.181045,186.177429 5.943228,190.205078 6.542265,194.833435 
	C56.432381,194.833435 106.039169,194.833435 155.814819,194.833435 
	C158.370850,189.447449 160.940247,184.046509 163.488266,178.635498 
	C163.664658,178.260895 163.681915,177.811371 164.029953,176.230026 
	C127.790817,193.407883 89.854080,189.897369 51.519646,189.908813 
	C65.033012,167.770905 78.176178,146.239471 91.683487,124.111481 
	C79.176704,124.111481 67.850723,124.111481 55.537842,124.111481 
M135.314301,52.838017 
	C142.348068,41.351791 149.260452,29.788462 156.481033,18.420891 
	C159.030640,14.406959 158.989624,10.483973 158.145920,6.368184 
	C108.804581,6.368184 59.789268,6.368184 10.049609,6.368184 
	C14.832216,12.681949 19.207291,18.457706 23.844273,24.579224 
	C37.328331,16.140285 51.967709,11.915290 67.446373,11.373257 
	C82.599281,10.842630 97.785301,11.257736 113.592407,11.257736 
	C101.245270,31.442221 89.346115,50.894371 77.064995,70.970947 
	C92.643669,70.970947 107.118668,71.043533 121.590355,70.857857 
	C123.026176,70.839424 124.934906,69.576668 125.779366,68.322586 
	C129.026917,63.499809 131.930618,58.445499 135.314301,52.838017 
M328.080170,146.500061 
	C328.080170,158.878967 328.080170,171.257874 328.080170,183.636780 
	C326.389313,182.466522 325.552704,181.128036 324.788300,179.749512 
	C315.194092,162.446762 305.648071,145.117035 295.958130,127.868118 
	C295.105530,126.350433 293.348053,124.299919 291.977997,124.274605 
	C277.722076,124.011322 263.459442,124.112434 248.761124,124.112434 
	C249.121918,125.222801 249.222763,125.857323 249.515045,126.386009 
	C261.741974,148.503052 273.940735,170.636124 286.344757,192.653549 
	C287.060425,193.923904 289.449768,194.868164 291.083099,194.903397 
	C300.740479,195.111633 310.404694,195.006042 320.066589,195.006042 
	C324.996399,195.006042 329.926208,195.006042 334.179321,195.006042 
	C333.492218,171.080811 332.824066,147.814911 332.150421,124.358032 
	C330.947449,124.358032 329.713867,124.358032 328.080170,124.358032 
	C328.080170,131.562958 328.080170,138.531555 328.080170,146.500061 
M253.892761,51.594147 
	C246.177780,37.636932 238.496918,23.660570 230.696243,9.751415 
	C229.895279,8.323263 228.393951,6.260366 227.190231,6.241529 
	C211.919037,6.002550 196.642807,6.084261 182.022736,6.084261 
	C182.591461,27.118114 183.169754,47.701530 183.684555,68.286545 
	C183.777466,72.002022 185.677979,71.158333 188.296844,70.225601 
	C188.296844,52.531982 188.296844,34.928864 188.296844,16.060232 
	C198.231308,33.959560 207.567825,50.622303 216.699921,67.396347 
	C218.173065,70.102272 219.782196,71.103088 222.865021,71.047020 
	C233.680069,70.850334 244.500870,70.970680 255.319489,70.970680 
	C258.183655,70.970673 261.047852,70.970673 264.575287,70.970673 
	C260.782013,64.133453 257.489319,58.198551 253.892761,51.594147 
M187.938477,145.500092 
	C187.937256,139.512314 187.823181,133.521576 187.980011,127.537949 
	C188.065079,124.291939 186.938507,123.358223 184.251389,124.429863 
	C183.450653,148.005524 182.657959,171.344849 181.865875,194.665619 
	C184.444977,194.665619 187.321579,194.665619 189.689087,194.665619 
	C189.098068,178.385910 188.519257,162.442902 187.938477,145.500092 
M333.107330,30.806162 
	C333.689178,22.718014 334.271057,14.629868 334.871552,6.282914 
	C331.828003,6.282914 329.090668,6.282914 326.537354,6.282914 
	C327.214996,27.829336 327.887115,49.200455 328.571289,70.954300 
	C329.836121,70.852516 331.173706,70.744873 333.079132,70.591537 
	C333.079132,57.367283 333.079132,44.560909 333.107330,30.806162 
M277.939056,96.568703 
	C277.963135,103.019569 278.696198,103.760895 283.809448,102.998711 
	C288.930023,102.235451 285.864777,98.537987 286.462280,96.110558 
	C287.525909,91.789764 284.463837,91.550148 281.699432,91.087318 
	C277.950012,90.459572 277.734436,92.920372 277.939056,96.568703 
M110.007957,99.697212 
	C110.145866,98.689255 110.283775,97.681290 110.574860,95.553726 
	C112.971214,98.771660 114.727180,101.129646 116.483154,103.487633 
	C116.783607,103.088173 117.084068,102.688713 117.384529,102.289246 
	C117.384529,98.733986 117.384529,95.178719 117.384529,91.623451 
	C117.033966,91.621834 116.683411,91.620216 116.332848,91.618599 
	C116.145607,93.752617 115.958374,95.886635 115.735207,98.430130 
	C113.298561,95.695503 111.241142,93.386467 108.514847,90.326767 
	C108.514847,95.307549 108.514847,98.891708 108.514847,102.475868 
	C108.802536,102.502449 109.090225,102.529022 109.377914,102.555603 
	C109.584908,101.855858 109.791901,101.156105 110.007957,99.697212 
M257.846039,91.878075 
	C257.137390,91.918701 255.952347,91.720146 255.793381,92.036774 
	C254.099121,95.411217 252.567535,98.867340 251.220520,101.801636 
	C255.329956,101.801636 258.761353,101.801636 262.382874,101.801636 
	C261.131989,98.994858 259.679932,95.736687 257.846039,91.878075 
M144.803497,100.328331 
	C146.913757,96.825348 145.331131,94.290634 142.505508,92.274796 
	C139.422272,90.075157 136.412460,91.228745 134.775314,93.933121 
	C133.754395,95.619545 133.624130,98.734802 134.510025,100.497093 
	C136.250504,103.959358 139.608963,103.548080 142.749268,102.105743 
	C143.336945,101.835815 143.822311,101.343155 144.803497,100.328331 
M162.562378,91.154716 
	C161.841553,94.890007 161.120712,98.625298 160.290070,102.929604 
	C163.309143,102.929604 165.261307,103.502464 166.469101,102.798401 
	C168.389603,101.678856 170.714828,99.924820 171.171555,98.030022 
	C171.559189,96.421959 169.929108,93.839012 168.471924,92.434128 
	C167.367722,91.369530 165.130188,91.480438 162.562378,91.154716 
M65.247856,103.019775 
	C66.325516,102.819077 67.403168,102.618378 68.480827,102.417686 
	C68.440651,102.071892 68.400467,101.726105 68.360291,101.380318 
	C66.509201,101.157089 64.658112,100.933861 62.653782,100.692154 
	C64.677422,97.686607 66.517647,94.953476 68.712799,91.693207 
	C64.884499,91.693207 62.223732,91.693207 59.562962,91.693207 
	C59.557034,92.008263 59.551105,92.323311 59.545177,92.638367 
	C61.223690,92.927505 62.902199,93.216652 65.070381,93.590149 
	C62.762016,96.681824 60.790989,99.321678 58.029404,103.020363 
	C61.180729,103.020363 62.802147,103.020363 65.247856,103.019775 
M91.371216,91.619850 
	C83.383484,90.110252 81.963730,92.455994 84.867813,103.020935 
	C87.009888,102.900528 89.242729,102.775017 91.475571,102.649506 
	C91.476006,102.294037 91.476440,101.938560 91.476868,101.583092 
	C89.651573,101.120628 87.826279,100.658165 86.000984,100.195702 
	C86.017052,99.817001 86.033112,99.438293 86.049179,99.059593 
	C87.576157,98.400620 89.103134,97.741646 91.707741,96.617615 
	C89.662460,96.264442 88.855782,96.194519 88.093124,95.973030 
	C87.394814,95.770233 86.744041,95.403709 86.072327,95.109322 
	C86.046761,94.730644 86.021187,94.351974 85.995613,93.973297 
	C87.817612,93.442467 89.639610,92.911636 91.371216,91.619850 
M189.547043,91.065956 
	C183.905350,94.155502 188.256104,98.755943 186.829971,103.146561 
	C190.061920,102.909821 192.283539,102.747093 194.505157,102.584358 
	C194.474289,102.281303 194.443420,101.978241 194.412552,101.675186 
	C192.602493,101.147133 190.792419,100.619080 188.982346,100.091019 
	C189.023605,99.687645 189.064865,99.284264 189.106140,98.880890 
	C190.611435,98.363022 192.116730,97.845154 194.454514,97.040886 
	C192.015701,96.151909 190.502045,95.600166 188.988403,95.048424 
	C188.996704,94.641838 189.005005,94.235260 189.013290,93.828682 
	C190.841766,93.361115 192.670227,92.893539 194.498688,92.425972 
	C194.486252,92.104164 194.473801,91.782349 194.461349,91.460541 
	C193.110428,91.323502 191.759491,91.186455 189.547043,91.065956 
M232.025192,93.130684 
	C231.366455,93.144913 230.131760,93.142822 230.130829,93.175697 
	C230.042877,96.280266 230.048996,99.387497 230.048996,102.470406 
	C232.641922,102.470406 234.564713,102.470406 236.487518,102.470406 
	C236.502625,102.202065 236.517731,101.933723 236.532837,101.665375 
	C235.089584,101.176186 233.646332,100.686996 232.053665,100.147171 
	C232.053665,97.933868 232.053665,95.945183 232.025192,93.130684 
z"/>
<path fill="#252122" opacity="1.000000" stroke="none" 
	d="
M56.031292,124.111481 
	C67.850723,124.111481 79.176704,124.111481 91.683487,124.111481 
	C78.176178,146.239471 65.033012,167.770905 51.519646,189.908813 
	C89.854080,189.897369 127.790817,193.407883 164.029953,176.230026 
	C163.681915,177.811371 163.664658,178.260895 163.488266,178.635498 
	C160.940247,184.046509 158.370850,189.447449 155.814819,194.833435 
	C106.039169,194.833435 56.432381,194.833435 6.542265,194.833435 
	C5.943228,190.205078 6.181045,186.177429 8.810317,182.009720 
	C19.548565,164.988342 30.135893,147.863037 40.325939,130.510086 
	C43.209419,125.599747 46.327721,123.006638 52.044991,124.080971 
	C53.171413,124.292625 54.371647,124.111481 56.031292,124.111481 
z"/>
<path fill="#262223" opacity="1.000000" stroke="none" 
	d="
M135.138428,53.157776 
	C131.930618,58.445499 129.026917,63.499809 125.779366,68.322586 
	C124.934906,69.576668 123.026176,70.839424 121.590355,70.857857 
	C107.118668,71.043533 92.643669,70.970947 77.064995,70.970947 
	C89.346115,50.894371 101.245270,31.442221 113.592407,11.257736 
	C97.785301,11.257736 82.599281,10.842630 67.446373,11.373257 
	C51.967709,11.915290 37.328331,16.140285 23.844273,24.579224 
	C19.207291,18.457706 14.832216,12.681949 10.049609,6.368184 
	C59.789268,6.368184 108.804581,6.368184 158.145920,6.368184 
	C158.989624,10.483973 159.030640,14.406959 156.481033,18.420891 
	C149.260452,29.788462 142.348068,41.351791 135.138428,53.157776 
z"/>
<path fill="#262223" opacity="1.000000" stroke="none" 
	d="
M328.080170,146.000107 
	C328.080170,138.531555 328.080170,131.562958 328.080170,124.358032 
	C329.713867,124.358032 330.947449,124.358032 332.150421,124.358032 
	C332.824066,147.814911 333.492218,171.080811 334.179321,195.006042 
	C329.926208,195.006042 324.996399,195.006042 320.066589,195.006042 
	C310.404694,195.006042 300.740479,195.111633 291.083099,194.903397 
	C289.449768,194.868164 287.060425,193.923904 286.344757,192.653549 
	C273.940735,170.636124 261.741974,148.503052 249.515045,126.386009 
	C249.222763,125.857323 249.121918,125.222801 248.761124,124.112434 
	C263.459442,124.112434 277.722076,124.011322 291.977997,124.274605 
	C293.348053,124.299919 295.105530,126.350433 295.958130,127.868118 
	C305.648071,145.117035 315.194092,162.446762 324.788300,179.749512 
	C325.552704,181.128036 326.389313,182.466522 328.080170,183.636780 
	C328.080170,171.257874 328.080170,158.878967 328.080170,146.000107 
z"/>
<path fill="#262223" opacity="1.000000" stroke="none" 
	d="
M254.044693,51.928894 
	C257.489319,58.198551 260.782013,64.133453 264.575287,70.970673 
	C261.047852,70.970673 258.183655,70.970673 255.319489,70.970680 
	C244.500870,70.970680 233.680069,70.850334 222.865021,71.047020 
	C219.782196,71.103088 218.173065,70.102272 216.699921,67.396347 
	C207.567825,50.622303 198.231308,33.959560 188.296844,16.060232 
	C188.296844,34.928864 188.296844,52.531982 188.296844,70.225601 
	C185.677979,71.158333 183.777466,72.002022 183.684555,68.286545 
	C183.169754,47.701530 182.591461,27.118114 182.022736,6.084261 
	C196.642807,6.084261 211.919037,6.002550 227.190231,6.241529 
	C228.393951,6.260366 229.895279,8.323263 230.696243,9.751415 
	C238.496918,23.660570 246.177780,37.636932 254.044693,51.928894 
z"/>
<path fill="#2C2829" opacity="1.000000" stroke="none" 
	d="
M187.939468,146.000000 
	C188.519257,162.442902 189.098068,178.385910 189.689087,194.665619 
	C187.321579,194.665619 184.444977,194.665619 181.865875,194.665619 
	C182.657959,171.344849 183.450653,148.005524 184.251389,124.429863 
	C186.938507,123.358223 188.065079,124.291939 187.980011,127.537949 
	C187.823181,133.521576 187.937256,139.512314 187.939468,146.000000 
z"/>
<path fill="#312D2E" opacity="1.000000" stroke="none" 
	d="
M333.093231,31.280350 
	C333.079132,44.560909 333.079132,57.367283 333.079132,70.591537 
	C331.173706,70.744873 329.836121,70.852516 328.571289,70.954300 
	C327.887115,49.200455 327.214996,27.829336 326.537354,6.282914 
	C329.090668,6.282914 331.828003,6.282914 334.871552,6.282914 
	C334.271057,14.629868 333.689178,22.718014 333.093231,31.280350 
z"/>
<path fill="#E2C9C2" opacity="1.000000" stroke="none" 
	d="
M277.938934,96.107651 
	C277.734436,92.920372 277.950012,90.459572 281.699432,91.087318 
	C284.463837,91.550148 287.525909,91.789764 286.462280,96.110558 
	C285.864777,98.537987 288.930023,102.235451 283.809448,102.998711 
	C278.696198,103.760895 277.963135,103.019569 277.938934,96.107651 
z"/>
<path fill="#E1C7C0" opacity="1.000000" stroke="none" 
	d="
M110.003418,100.076782 
	C109.791901,101.156105 109.584908,101.855858 109.377914,102.555603 
	C109.090225,102.529022 108.802536,102.502449 108.514847,102.475868 
	C108.514847,98.891708 108.514847,95.307549 108.514847,90.326767 
	C111.241142,93.386467 113.298561,95.695503 115.735207,98.430130 
	C115.958374,95.886635 116.145607,93.752617 116.332848,91.618599 
	C116.683411,91.620216 117.033966,91.621834 117.384529,91.623451 
	C117.384529,95.178719 117.384529,98.733986 117.384529,102.289246 
	C117.084068,102.688713 116.783607,103.088173 116.483154,103.487633 
	C114.727180,101.129646 112.971214,98.771660 110.574860,95.553726 
	C110.283775,97.681290 110.145866,98.689255 110.003418,100.076782 
z"/>
<path fill="#E1C8C1" opacity="1.000000" stroke="none" 
	d="
M258.036957,92.178299 
	C259.679932,95.736687 261.131989,98.994858 262.382874,101.801636 
	C258.761353,101.801636 255.329956,101.801636 251.220520,101.801636 
	C252.567535,98.867340 254.099121,95.411217 255.793381,92.036774 
	C255.952347,91.720146 257.137390,91.918701 258.036957,92.178299 
z"/>
<path fill="#E3CBC4" opacity="1.000000" stroke="none" 
	d="
M144.579193,100.640808 
	C143.822311,101.343155 143.336945,101.835815 142.749268,102.105743 
	C139.608963,103.548080 136.250504,103.959358 134.510025,100.497093 
	C133.624130,98.734802 133.754395,95.619545 134.775314,93.933121 
	C136.412460,91.228745 139.422272,90.075157 142.505508,92.274796 
	C145.331131,94.290634 146.913757,96.825348 144.579193,100.640808 
M136.272964,99.495750 
	C138.287766,99.632202 140.302551,99.768654 142.317352,99.905113 
	C142.300415,98.214417 142.725815,96.330223 142.102325,94.904846 
	C141.722198,94.035858 138.823547,93.210205 138.607574,93.504333 
	C137.448074,95.083313 136.775742,97.020027 136.272964,99.495750 
z"/>
<path fill="#E2CAC3" opacity="1.000000" stroke="none" 
	d="
M162.979675,91.111481 
	C165.130188,91.480438 167.367722,91.369530 168.471924,92.434128 
	C169.929108,93.839012 171.559189,96.421959 171.171555,98.030022 
	C170.714828,99.924820 168.389603,101.678856 166.469101,102.798401 
	C165.261307,103.502464 163.309143,102.929604 160.290070,102.929604 
	C161.120712,98.625298 161.841553,94.890007 162.979675,91.111481 
M166.785797,93.540634 
	C162.576019,92.026054 163.081787,94.984123 162.960861,97.491356 
	C162.844254,99.909393 163.755142,101.840942 166.207993,100.748489 
	C167.540146,100.155174 168.145752,97.681961 168.780136,95.947372 
	C168.936462,95.519981 167.925293,94.665604 166.785797,93.540634 
z"/>
<path fill="#E2CAC3" opacity="1.000000" stroke="none" 
	d="
M64.835709,103.020065 
	C62.802147,103.020363 61.180729,103.020363 58.029404,103.020363 
	C60.790989,99.321678 62.762016,96.681824 65.070381,93.590149 
	C62.902199,93.216652 61.223690,92.927505 59.545177,92.638367 
	C59.551105,92.323311 59.557034,92.008263 59.562962,91.693207 
	C62.223732,91.693207 64.884499,91.693207 68.712799,91.693207 
	C66.517647,94.953476 64.677422,97.686607 62.653782,100.692154 
	C64.658112,100.933861 66.509201,101.157089 68.360291,101.380318 
	C68.400467,101.726105 68.440651,102.071892 68.480827,102.417686 
	C67.403168,102.618378 66.325516,102.819077 64.835709,103.020065 
z"/>
<path fill="#E2C9C2" opacity="1.000000" stroke="none" 
	d="
M91.416412,92.000336 
	C89.639610,92.911636 87.817612,93.442467 85.995613,93.973297 
	C86.021187,94.351974 86.046761,94.730644 86.072327,95.109322 
	C86.744041,95.403709 87.394814,95.770233 88.093124,95.973030 
	C88.855782,96.194519 89.662460,96.264442 91.707741,96.617615 
	C89.103134,97.741646 87.576157,98.400620 86.049179,99.059593 
	C86.033112,99.438293 86.017052,99.817001 86.000984,100.195702 
	C87.826279,100.658165 89.651573,101.120628 91.476868,101.583092 
	C91.476440,101.938560 91.476006,102.294037 91.475571,102.649506 
	C89.242729,102.775017 87.009888,102.900528 84.867813,103.020935 
	C81.963730,92.455994 83.383484,90.110252 91.416412,92.000336 
z"/>
<path fill="#E2C9C2" opacity="1.000000" stroke="none" 
	d="
M189.977798,91.057686 
	C191.759491,91.186455 193.110428,91.323502 194.461349,91.460541 
	C194.473801,91.782349 194.486252,92.104164 194.498688,92.425972 
	C192.670227,92.893539 190.841766,93.361115 189.013290,93.828682 
	C189.005005,94.235260 188.996704,94.641838 188.988403,95.048424 
	C190.502045,95.600166 192.015701,96.151909 194.454514,97.040886 
	C192.116730,97.845154 190.611435,98.363022 189.106140,98.880890 
	C189.064865,99.284264 189.023605,99.687645 188.982346,100.091019 
	C190.792419,100.619080 192.602493,101.147133 194.412552,101.675186 
	C194.443420,101.978241 194.474289,102.281303 194.505157,102.584358 
	C192.283539,102.747093 190.061920,102.909821 186.829971,103.146561 
	C188.256104,98.755943 183.905350,94.155502 189.977798,91.057686 
z"/>
<path fill="#E2C9C2" opacity="1.000000" stroke="none" 
	d="
M232.039429,93.543594 
	C232.053665,95.945183 232.053665,97.933868 232.053665,100.147171 
	C233.646332,100.686996 235.089584,101.176186 236.532837,101.665375 
	C236.517731,101.933723 236.502625,102.202065 236.487518,102.470406 
	C234.564713,102.470406 232.641922,102.470406 230.048996,102.470406 
	C230.048996,99.387497 230.042877,96.280266 230.130829,93.175697 
	C230.131760,93.142822 231.366455,93.144913 232.039429,93.543594 
z"/>
<path fill="#F9F7F6" opacity="1.000000" stroke="none" 
	d="
M136.104065,99.164474 
	C136.775742,97.020027 137.448074,95.083313 138.607574,93.504333 
	C138.823547,93.210205 141.722198,94.035858 142.102325,94.904846 
	C142.725815,96.330223 142.300415,98.214417 142.317352,99.905113 
	C140.302551,99.768654 138.287766,99.632202 136.104065,99.164474 
z"/>
<path fill="#FAF8F7" opacity="1.000000" stroke="none" 
	d="
M167.118317,93.774078 
	C167.925293,94.665604 168.936462,95.519981 168.780136,95.947372 
	C168.145752,97.681961 167.540146,100.155174 166.207993,100.748489 
	C163.755142,101.840942 162.844254,99.909393 162.960861,97.491356 
	C163.081787,94.984123 162.576019,92.026054 167.118317,93.774078 
z"/>
</svg>